# AST/ASF file generated using VICON BodyLanguage
# -----------------------------------------------
:version 1.10
:name VICON
:units
  mass 1.0
  length 0.45
  angle deg
:documentation
   .ast/.asf automatically generated from VICON data using
   VICON BodyBuilder and BodyLanguage model FoxedUp or BRILLIANT.MOD
:root
   order TX TY TZ RX RY RZ
   axis XYZ
   position 0 0 0  
   orientation 0 0 0 
:bonedata
  begin
     id 1 
     name lhipjoint
     direction 0.440178 -0.822639 0.359871 
     length 2.53113 
     axis 0 0 0  XYZ
  end
  begin
     id 2 
     name lfemur
     direction 0.34202 -0.939693 0  
     length 7.88132  
     axis 0 0 20  XYZ
    dof rx ry rz
    limits (-160.0 20.0)
           (-70.0 70.0)
           (-60.0 70.0)
  end
  begin
     id 3 
     name ltibia
     direction 0.34202 -0.939693 0   
     length 8.43783   
     axis 0 0 20   XYZ
    dof rx
    limits (-10.0 170.0)
  end
  begin
     id 4 
     name lfoot
     direction 0.0886351 -0.243523 0.965837   
     length 2.63414   
     axis -90 7.62852e-016 20   XYZ
    dof rx rz
    limits (-45.0 90.0)
           (-70.0 20.0)
  end
  begin
     id 5 
     name ltoes
     direction 1.53703e-011 -4.21717e-011 1   
     length 1.31427   
     axis -90 7.62852e-016 20   XYZ
    dof rx
    limits (-90.0 20.0)
  end
  begin
     id 6 
     name rhipjoint
     direction -0.399779 -0.839773 0.367367   
     length 2.47948  
     axis 0 0 0  XYZ 
  end
  begin
     id 7 
     name rfemur
     direction -0.34202 -0.939693 0   
     length 7.74806   
     axis 0 0 -20   XYZ
    dof rx ry rz
    limits (-160.0 20.0)
           (-70.0 70.0)
           (-70.0 60.0)
  end
  begin
     id 8 
     name rtibia
     direction -0.34202 -0.939693 0   
     length 8.74432   
     axis 0 0 -20   XYZ
    dof rx
    limits (-10.0 170.0)
 end
 begin
     id 9 
     name rfoot
     direction -0.108514 -0.298139 0.948334   
     length 2.66102  
     axis -90 -7.62852e-016 -20   XYZ
    dof rx rz
    limits (-45.0 90.0)
           (-20.0 70.0)
  end
  begin
     id 10 
     name rtoes
     direction -1.53392e-011 -4.22077e-011 1   
     length 1.31983   
     axis -90 -7.62852e-016 -20   XYZ
    dof rx
    limits (-90.0 20.0)
  end
  begin
     id 11 
     name lowerback
     direction 0.0113257 0.999866 0.0118602   
     length 2.58694   
     axis 0 0 0   XYZ
    dof rx ry rz
    limits (-20.0 45.0)
           (-30.0 30.0)
           (-30.0 30.0)
  end
  begin
     id 12 
     name upperback
     direction -0.0164747 0.995193 -0.0965375   
     length 2.52368   
     axis 0 0 0   XYZ
    dof rx ry rz
    limits (-20.0 45.0)
           (-30.0 30.0)
           (-30.0 30.0)
  end
  begin
     id 13 
     name thorax
     direction -0.0194301 0.99433 -0.104552   
     length 2.56099   
     axis 0 0 0   XYZ
    dof rx ry rz
    limits (-20.0 45.0)
           (-30.0 30.0)
           (-30.0 30.0)
  end
  begin
     id 14 
     name lowerneck
     direction 0.0148543 0.995587 -0.092657   
     length 1.71582   
     axis 0 0 0   XYZ
    dof rx ry rz
    limits (-20.0 45.0)
           (-30.0 30.0)
           (-30.0 30.0)
  end
  begin
     id 15 
     name upperneck
     direction -0.0135467 0.993656 -0.111639   
     length 1.68937   
     axis 0 0 0   XYZ
    dof rx ry rz
    limits (-20.0 45.0)
           (-30.0 30.0)
           (-30.0 30.0)
  end
  begin
     id 16
     name head
     direction -0.00615349 0.999547 -0.029448  
     length 1.7462  
     axis 0 0 0   XYZ
    dof rx ry rz
    limits (-20.0 45.0)
           (-30.0 30.0)
           (-30.0 30.0)
  end
  begin
     id 17 
     name lclavicle
     direction 0.988267 0.149885 0.0293713  
     length 4.47222  
     axis 0 0 0   XYZ
    dof ry rz
    limits (-20.0 10.0)
           (0.0 20.0)
  end
  begin
     id 18 
     name lhumerus
     direction 1 -4.48986e-011 -1.14833e-027   
     length 5.37148   
     axis 180 -30 -90   XYZ
    dof rx ry rz
    limits (-60.0 90.0)
           (-90.0 90.0)
           (-90.0 90.0)
  end
  begin
     id 19
     name lradius
     direction 0.999998 0.00170963 -0.000987055   
     length 3.94212   
     axis 180 -30 -90   XYZ
    dof rx
    limits (-10.0 170.0)
  end
  begin
     id 20
     name lwrist
     direction 0.999998 7.53149e-005 -0.00194706   
     length 1.97106   
     axis 4.65056e-015 90 90   XYZ
    dof ry
    limits (-180.0 0.0)
 end
  begin
     id 21 
     name lhand
     direction 1 -4.48973e-011 -1.31746e-026   
     length 1.17917   
     axis 8.4065e-015 90 90   XYZ
    dof rx rz
    limits (-90.0 90.0)
           (-45.0 45.0)
  end
  begin
     id 22 
     name lfingers
     direction 1 -4.49107e-011 -2.63492e-026   
     length 0.950679   
     axis 1.6813e-014 90 90   XYZ
    dof rx
    limits (0.0 90.0)
  end
  begin
     id 23
     name lthumb
     direction 0.707107 -6.35048e-011 0.707107   
     length 1.36499   
     axis -90 45 2.85299e-015   XYZ
    dof rx rz
    limits (-45.0 45.0)
           (-45.0 45.0)
  end
  begin
     id 24 
     name rclavicle
     direction -0.996699 0.0642895 -0.0495725   
     length 4.62611  
     axis 0 0 0   XYZ 
    dof ry rz
    limits (-10.0 20.0)
           (-20.0 0.0)
  end
  begin
     id 25 
     name rhumerus
     direction -1 -4.48919e-011 -2.41059e-027  
     length 5.4981   
     axis 180 30 90   XYZ
    dof rx ry rz
    limits (-90.0 60.0)
           (-90.0 90.0)
           (-90.0 90.0)
  end
  begin
     id 26 
     name rradius
     direction -0.999999 0.00118101 -0.000681858   
     length 3.48381   
     axis 180 30 90   XYZ
    dof rx
    limits (-10.0 170.0)
  end
  begin
     id 27 
     name rwrist
     direction -0.999999 0.000321823 -0.00132288   
     length 1.7419   
     axis 4.65056e-015 -90 -90   XYZ
    dof ry
    limits (-180.0 0.0)
  end
  begin
     id 28
     name rhand
     direction -1 -4.49022e-011 -1.31746e-026   
     length 1.34932   
     axis 8.4065e-015 -90 -90   XYZ
    dof rx rz
    limits (-90.0 90.0)
           (-45.0 45.0)
  end
  begin
     id 29
     name rfingers
     direction -1 -4.49178e-011 -2.63492e-026   
     length 1.08785   
     axis 1.6813e-014 -90 -90   XYZ
    dof rx
    limits (0.0 90.0)
  end
  begin
     id 30
     name rthumb
     direction -0.707107 -6.34713e-011 0.707107   
     length 1.56195   
     axis -90 -45 -2.85299e-015   XYZ
    dof rx rz
    limits (-45.0 45.0)
           (-45.0 45.0)
  end
:hierarchy
  begin
    root lhipjoint rhipjoint lowerback
    lhipjoint lfemur
    lfemur ltibia
    ltibia lfoot
    lfoot ltoes
    rhipjoint rfemur
    rfemur rtibia
    rtibia rfoot
    rfoot rtoes
    lowerback upperback
    upperback thorax
    thorax lowerneck lclavicle rclavicle
    lowerneck upperneck
    upperneck head
    lclavicle lhumerus
    lhumerus lradius
    lradius lwrist
    lwrist lhand lthumb
    lhand lfingers
    rclavicle rhumerus
    rhumerus rradius
    rradius rwrist
    rwrist rhand rthumb
    rhand rfingers
  end

#!OML:ASF X:\für Bonn\!DataBase\2005_08_10_Bjorn_Final\c3d\bjorn.ASF
:FULLY-SPECIFIED
:DEGREES
1
root 0.773777 19.1843 2.38551 -173.557 0.598602 -178.042
lowerback -3.51562 2.46751 6.29702
upperback 4.59987 3.1589 -1.77183
thorax 7.2634 2.01349 -5.07788
lowerneck -15.7977 -5.33444 1.78757
upperneck 13.4087 -8.03578 1.81697
head 6.68585 -3.65664 -0.529313
rclavicle 8.15017e-015 4.77083e-015
rhumerus 73.7817 -2.63189 -78.9915
rradius 7.28633
rwrist 46.7195
rhand -10.2037 10.406
rfingers 7.12502
rthumb 15.7875 -18.9702
lclavicle 8.15017e-015 4.77083e-015
lhumerus 80.7228 -10.624 59.6475
lradius 11.0787
lwrist -38.3702
lhand -12.2253 -5.80185
lfingers 7.12502
lthumb 13.8399 23.7177
rfemur -16.1611 -16.6674 18.6185
rtibia 30.7444
rfoot -14.3775 20.2754
rtoes -9.5997
lfemur -15.7141 15.2983 -17.7381
ltibia 32.0607
lfoot -16.0643 -17.3958
ltoes 0.653751
2
root 0.772669 19.1861 2.39771 -173.595 0.533701 -178.093
lowerback -3.47258 2.44745 6.3098
upperback 4.66487 3.13915 -1.7735
thorax 7.3065 2.0103 -5.08914
lowerneck -15.5126 -5.39665 1.7328
upperneck 13.1246 -8.09779 1.89208
head 6.55165 -3.69234 -0.48875
rclavicle 2.28602e-015 -6.16232e-015
rhumerus 73.7296 -2.64477 -78.9937
rradius 7.39699
rwrist 46.8538
rhand -10.2213 10.508
rfingers 7.12502
rthumb 15.7706 -18.8695
lclavicle 2.28602e-015 -6.16232e-015
lhumerus 80.7957 -10.7638 59.394
lradius 10.9992
lwrist -38.138
lhand -12.3113 -5.77439
lfingers 7.12502
lthumb 13.757 23.7508
rfemur -16.1737 -16.1895 18.5778
rtibia 30.8517
rfoot -14.7066 19.5998
rtoes -10.7521
lfemur -15.7035 15.5517 -17.7937
ltibia 31.9799
lfoot -15.8387 -17.7378
ltoes 0.823088
3
root 0.770618 19.1884 2.41084 -173.632 0.453956 -178.181
lowerback -3.44362 2.41197 6.28402
upperback 4.7526 3.1024 -1.78149
thorax 7.37762 1.99915 -5.08618
lowerneck -15.2654 -5.46087 1.66905
upperneck 12.834 -8.1652 1.99337
head 6.42384 -3.72855 -0.440035
rclavicle 5.19822e-014 -2.24627e-014
rhumerus 73.6819 -2.63673 -79.0033
rradius 7.49637
rwrist 46.9513
rhand -10.2567 10.5977
rfingers 7.12502
rthumb 15.7365 -18.7825
lclavicle 5.19822e-014 -2.24627e-014
lhumerus 80.8091 -10.8833 59.3087
lradius 10.9452
lwrist -38.104
lhand -12.3672 -5.81686
lfingers 7.12502
lthumb 13.7032 23.712
rfemur -16.2044 -15.86 18.4884
rtibia 30.9703
rfoot -14.9527 19.0996
rtoes -11.5342
lfemur -15.7072 15.7821 -17.8964
ltibia 31.9045
lfoot -15.6895 -18.0213
ltoes 0.662463
4
root 0.77199 19.1905 2.42382 -173.671 0.381859 -178.248
lowerback -3.40385 2.38056 6.23153
upperback 4.8362 3.07189 -1.76597
thorax 7.43554 1.98813 -5.04285
lowerneck -15.0425 -5.52931 1.54961
upperneck 12.6007 -8.23711 2.13292
head 6.32298 -3.76527 -0.373059
rclavicle -1.2921e-015 1.21259e-014
rhumerus 73.6026 -2.62048 -78.9965
rradius 7.58926
rwrist 47.0535
rhand -10.1499 10.6093
rfingers 7.12502
rthumb 15.8392 -18.7628
lclavicle -1.2921e-015 1.21259e-014
lhumerus 80.8832 -11.0256 58.9667
lradius 10.8608
lwrist -37.8144
lhand -12.4292 -5.81858
lfingers 7.12502
lthumb 13.6434 23.7143
rfemur -16.2465 -15.4867 18.4359
rtibia 31.1156
rfoot -15.2872 18.5177
rtoes -12.5445
lfemur -15.698 16.0293 -17.9643
ltibia 31.8155
lfoot -15.5121 -18.331
ltoes 0.630706
5
root 0.773097 19.1922 2.43789 -173.719 0.299172 -178.3
lowerback -3.33265 2.34813 6.20889
upperback 4.9102 3.04021 -1.7543
thorax 7.467 1.97721 -5.02199
lowerneck -14.8355 -5.6013 1.41509
upperneck 12.4371 -8.31412 2.26276
head 6.24761 -3.8046 -0.30924
rclavicle 2.89232e-014 -2.26615e-014
rhumerus 73.4731 -2.58141 -79.0071
rradius 7.67736
rwrist 47.1233
rhand -10.0443 10.587
rfingers 7.12502
rthumb 15.941 -18.777
lclavicle 2.89232e-014 -2.26615e-014
lhumerus 80.9522 -11.1827 58.6289
lradius 10.7568
lwrist -37.5083
lhand -12.4617 -5.8473
lfingers 7.12502
lthumb 13.6121 23.6877
rfemur -16.278 -15.1361 18.3893
rtibia 31.2609
rfoot -15.5812 18.0234
rtoes -13.2759
lfemur -15.6961 15.4897 -18.0246
ltibia 31.7322
lfoot -15.5375 -17.8505
ltoes 0.241939
6
root 0.774703 19.1928 2.45148 -173.793 0.216953 -178.387
lowerback -3.24194 2.30472 6.12756
upperback 5.01072 3.00104 -1.73703
thorax 7.51032 1.96143 -4.96288
lowerneck -14.7091 -5.67558 1.23414
upperneck 12.3132 -8.39272 2.42197
head 6.20211 -3.84235 -0.232493
rclavicle -5.06901e-015 1.98785e-014
rhumerus 73.3781 -2.54216 -79.0021
rradius 7.71148
rwrist 47.1306
rhand -9.95083 10.5839
rfingers 7.12502
rthumb 16.031 -18.7729
lclavicle -5.06901e-015 1.98785e-014
lhumerus 81.0425 -11.3249 58.2283
lradius 10.6734
lwrist -37.0968
lhand -12.4913 -5.82907
lfingers 7.12502
lthumb 13.5835 23.7078
rfemur -16.2807 -14.7179 18.2912
rtibia 31.4189
rfoot -15.9217 17.4682
rtoes -13.9515
lfemur -15.6619 14.9928 -18.1146
ltibia 31.6454
lfoot -15.601 -17.4112
ltoes -0.363108
7
root 0.776238 19.1921 2.46499 -173.896 0.137783 -178.489
lowerback -3.11475 2.2602 6.05013
upperback 5.11865 2.96543 -1.7402
thorax 7.54256 1.94901 -4.92842
lowerneck -14.6427 -5.75731 1.00747
upperneck 12.2717 -8.48621 2.62714
head 6.19751 -3.88347 -0.139386
rclavicle -2.91716e-014 1.72943e-014
rhumerus 73.2435 -2.50963 -79.0233
rradius 7.78381
rwrist 47.1386
rhand -9.84964 10.5575
rfingers 7.12502
rthumb 16.1284 -18.7914
lclavicle -2.91716e-014 1.72943e-014
lhumerus 81.0986 -11.4764 57.8463
lradius 10.6286
lwrist -36.7278
lhand -12.475 -5.86844
lfingers 7.12502
lthumb 13.5992 23.6674
rfemur -16.2489 -14.3589 18.168
rtibia 31.5696
rfoot -16.1952 16.9956
rtoes -14.3772
lfemur -15.6024 14.4584 -18.2132
ltibia 31.5774
lfoot -15.7642 -16.8972
ltoes -1.24689
8
root 0.778174 19.1896 2.47834 -174.055 0.0692755 -178.586
lowerback -2.91686 2.21526 5.95778
upperback 5.24934 2.93689 -1.72908
thorax 7.55724 1.94042 -4.87142
lowerneck -14.6791 -5.83626 0.79281
upperneck 12.2868 -8.57743 2.80052
head 6.22656 -3.9224 -0.062218
rclavicle 3.05134e-014 -3.18055e-015
rhumerus 73.1458 -2.46153 -79.0317
rradius 7.79254
rwrist 47.0839
rhand -9.81173 10.5243
rfingers 7.12502
rthumb 16.1649 -18.8216
lclavicle 3.05134e-014 -3.18055e-015
lhumerus 81.0862 -11.6227 57.7236
lradius 10.6308
lwrist -36.5336
lhand -12.4992 -5.87793
lfingers 7.12502
lthumb 13.5759 23.6594
rfemur -16.1591 -14.0266 18.0328
rtibia 31.7283
rfoot -16.4723 16.5625
rtoes -14.8956
lfemur -15.4275 13.9402 -18.2992
ltibia 31.524
lfoot -16.1598 -16.321
ltoes -2.99461
9
root 0.780583 19.1843 2.49335 -174.291 -0.0169787 -178.721
lowerback -2.60746 2.14702 5.82742
upperback 5.39448 2.88966 -1.71875
thorax 7.51749 1.92115 -4.79921
lowerneck -14.7545 -5.9074 0.564026
upperneck 12.3378 -8.65475 2.95841
head 6.27368 -3.95485 0.0116775
rclavicle -1.89839e-014 1.07344e-014
rhumerus 73.022 -2.40142 -79.031
rradius 7.83233
rwrist 46.9717
rhand -9.79314 10.4668
rfingers 7.12502
rthumb 16.1828 -18.8777
lclavicle -1.89839e-014 1.07344e-014
lhumerus 80.9839 -11.7315 57.9123
lradius 10.6578
lwrist -36.6314
lhand -12.4919 -5.92209
lfingers 7.12502
lthumb 13.5829 23.6148
rfemur -15.978 -13.6175 17.8381
rtibia 31.8821
rfoot -16.7603 16.0776
rtoes -15.0488
lfemur -15.1907 13.4106 -18.4064
ltibia 31.5037
lfoot -16.6267 -15.7729
ltoes -5.02233
10
root 0.782798 19.1745 2.51087 -174.636 -0.083381 -178.85
lowerback -2.14865 2.42444 5.70267
upperback 5.58183 2.7743 -1.68948
thorax 7.449 1.6462 -4.74779
lowerneck -14.8886 -5.98456 0.337133
upperneck 12.4317 -8.74539 3.12596
head 6.34531 -3.99104 0.0842153
rclavicle -1.22253e-014 2.08724e-014
rhumerus 72.9264 -2.35453 -79.0414
rradius 7.83098
rwrist 46.8873
rhand -9.90458 10.4148
rfingers 7.12502
rthumb 16.0755 -18.9384
lclavicle -1.22253e-014 2.08724e-014
lhumerus 80.865 -11.8536 58.1015
lradius 10.7432
lwrist -36.6901
lhand -12.4865 -5.89792
lfingers 7.12502
lthumb 13.5882 23.6386
rfemur -15.6853 -13.2203 17.6231
rtibia 32.0396
rfoot -17.0607 15.6252
rtoes -15.4193
lfemur -14.8508 12.8187 -18.4886
ltibia 31.5262
lfoot -17.1486 -15.1104
ltoes -7.16028
11
root 0.785357 19.1627 2.53118 -175.098 -0.168636 -178.978
lowerback -1.50951 2.36967 5.57235
upperback 5.7748 2.70473 -1.64978
thorax 7.26683 1.58956 -4.6583
lowerneck -15.0763 -6.0485 0.0977186
upperneck 12.5682 -8.80716 3.23599
head 6.43728 -4.01604 0.141095
rclavicle 1.63003e-014 5.36719e-015
rhumerus 72.8179 -2.26468 -79.0139
rradius 7.84857
rwrist 46.7701
rhand -10.0323 10.3916
rfingers 7.12502
rthumb 15.9526 -18.9715
lclavicle 1.63003e-014 5.36719e-015
lhumerus 80.6285 -11.9397 58.5984
lradius 10.8683
lwrist -36.9609
lhand -12.579 -5.90871
lfingers 7.12502
lthumb 13.499 23.6338
rfemur -15.2766 -12.8517 17.3895
rtibia 32.2101
rfoot -17.3821 15.1904
rtoes -15.7
lfemur -14.4143 12.2278 -18.5459
ltibia 31.5941
lfoot -17.6168 -14.4538
ltoes -9.06588
